<svg id="e2165270-d70d-4354-9ac9-1848d055b0c2" xmlns="http://www.w3.org/2000/svg" xmlns:xlink="http://www.w3.org/1999/xlink" viewBox="0 0 971.44 626.23"><defs><style>.cls-1{fill:#3f3d56;}.cls-2{fill:#90d8c4;}.cls-3{opacity:0.1;isolation:isolate;}.cls-4{fill:#e0e0e0;}.cls-5{fill:#ffbfa3;}.cls-6{fill:#74635c;}.cls-7{fill:#b88b5e;}.cls-8{fill:none;}.cls-9{fill:url(#linear-gradient);}.cls-10{fill:url(#linear-gradient-2);}.cls-11{fill:#c2805d;}.cls-12{fill:#b86c44;}.cls-13{fill:#535461;}.cls-14{fill:#fff;}.cls-15{fill:#eee;}</style><linearGradient id="linear-gradient" x1="570.61" y1="143.65" x2="570.61" y2="168.07" gradientUnits="userSpaceOnUse"><stop offset="0" stop-color="#b88b5e"/><stop offset="1" stop-color="#c2805d"/></linearGradient><linearGradient id="linear-gradient-2" x1="399.61" y1="139.2" x2="399.61" y2="163.9" xlink:href="#linear-gradient"/></defs><path class="cls-1" d="M145.83,537.81c-7,26.6-31.45,43.22-31.45,43.22s-13.16-26.5-6.17-53.1,31.46-43.22,31.46-43.22S152.82,511.21,145.83,537.81Z" transform="translate(0 -35.77)"/><path class="cls-2" d="M135.24,532.18C115.68,551.51,113.49,581,113.49,581s29.53-1.83,49.09-21.15S184.33,511,184.33,511,154.8,512.86,135.24,532.18Z" transform="translate(0 -35.77)"/><rect class="cls-2" x="68.05" y="537.47" width="106.92" height="45.5" rx="15.2"/><path class="cls-2" d="M892.86,546.74a19.46,19.46,0,1,0,19.46,19.46A19.46,19.46,0,0,0,892.86,546.74Zm0,31.44a12,12,0,1,1,12-12h0A12,12,0,0,1,892.86,578.18Z" transform="translate(0 -35.77)"/><path class="cls-3" d="M892.86,546.74a19.46,19.46,0,1,0,19.46,19.46A19.46,19.46,0,0,0,892.86,546.74Zm0,31.44a12,12,0,1,1,12-12h0A12,12,0,0,1,892.86,578.18Z" transform="translate(0 -35.77)"/><path class="cls-2" d="M818,531.78h74.84v74.07a9.76,9.76,0,0,1-9.75,9.75H827.77a9.75,9.75,0,0,1-9.75-9.75h0V531.78Z" transform="translate(0 -35.77)"/><rect class="cls-4" y="579.83" width="971.44" height="32.93"/><path class="cls-2" d="M489.29,522.72c48.89,0,128.81-14.57,166.79-39.61-4.11-22.48-13.58-58.87-22.55-91.43C622.11,350.21,550,321.47,507,321.47H465.54c-43.14,0-115.35,28.91-126.63,70.55-8.6,31.74-17.77,66.59-22.34,87.06C355.71,506.58,437.82,522.72,489.29,522.72Z" transform="translate(0 -35.77)"/><path class="cls-3" d="M449.29,261.31h74.48v59.58a37.24,37.24,0,0,1-37.24,37.24h0a37.24,37.24,0,0,1-37.24-37.24V261.31Z" transform="translate(0 -35.77)"/><path class="cls-5" d="M460,258.55h53.12a10.69,10.69,0,0,1,10.68,10.69v48.9a37.23,37.23,0,0,1-37.24,37.23h0a37.23,37.23,0,0,1-37.24-37.23v-48.9A10.69,10.69,0,0,1,460,258.55Z" transform="translate(0 -35.77)"/><path class="cls-3" d="M449.43,289.43a107.16,107.16,0,0,0,74.48.21v-9.15H449.43Z" transform="translate(0 -35.77)"/><path class="cls-5" d="M488.64,90.42c59,0,94.33,37.46,94.33,97.58s-36.78,107.92-95.74,107.92-98.76-54.86-98.76-115c0-26.3,13.89-51,27.7-65.86C433.93,96,455.48,90.42,488.64,90.42Z" transform="translate(0 -35.77)"/><path class="cls-6" d="M426,295.31c0-.72,0-1.43,0-2.14a17.5,17.5,0,0,1-.65,2.18A2.33,2.33,0,0,1,426,295.31Z" transform="translate(0 -35.77)"/><path class="cls-7" d="M612.12,250.49a55.26,55.26,0,0,1-4.24-7.81c-.5-1.07-3.79-7.51-4.58-10.18-2.84-9.61-6.42-19.8-5.14-29.94.65-5.15-8.24-6.39-9.13-1.23-2,11.88.25,22.71,3.57,34.12,1.73,5.93,4.43,17.85,10.64,21.82,0,2.25-2.09,5.94-2.94,7.65a38.25,38.25,0,0,1-12.61,14.71c-2.36,1.68-5.7,4.29-8.76,4.31-2.84,0-5.14-2.31-6.8-4.4-4.07-5.15-4.07-11.36-7.09-16.85-2.11-3.84-7-2.31-8.45,1.11-3.32,8,3.61,19.68,9.08,25.2,7.61,7.67,17.05,7.2,25.74,1.58,8.43-5.45,14.94-12.27,19.13-21.49,1.83-4,3.89-8.67,3.64-13.2A10.17,10.17,0,0,0,612.12,250.49Z" transform="translate(0 -35.77)"/><path class="cls-7" d="M420.41,266.17c-2.16-4.69-8.3-1.7-8.73,2.37-.65,6,.88,12-.06,18.1-.49,3.13-1.73,5.66-3,8.5-.69,1.61-.48,1.83-1.33,1.59s-2-1.89-2.55-2.51c-3.42-3.69-6.71-7.19-11.67-8.75-5.57-1.74-11.86.67-15.07-5.65-2.76-5.44-.25-11.66,0-17.34a20.73,20.73,0,0,0-1.85-8.51,18.28,18.28,0,0,1-.62-10.81c3-14.62,5.57-28.1,3.91-43.13-.55-5-8.38-5.15-7.95,0a93,93,0,0,1-1.61,28.15c-1.9,8.35-6.37,17-4.63,25.76.38,1.9,1.34,3.68,1.67,5.58.37,2.11-.09,4-.39,6.11a47.72,47.72,0,0,0-.71,10.6c.61,7.69,4.88,15,12.23,18,3.47,1.41,6.8,1.09,10.39,1.6,3.21.46,5.12,2.64,7.22,4.91,4.22,4.56,9.46,9.56,16.12,6.59s9.71-12,10.73-18.49C423.68,281.35,423.63,273.16,420.41,266.17Z" transform="translate(0 -35.77)"/><path class="cls-7" d="M378.49,149.56c0-3.28-4.56-5.59-6.88-2.85-4.14,4.91-3.71,10.19-2.86,16.19a17.75,17.75,0,0,1-.33,7.88c-.4,1.34-1.34,5-2.88,5.62a6.56,6.56,0,0,0-1.09.56c0,.61.09,1.23.16,1.83,0,.27.07.53.12.79,0,.1.14.48.16.53a15.62,15.62,0,0,0,.75,2.5c.59,1.33,1.39,2.56,2,3.87.21,0,.41-.08.63-.14,6.43-2,9.58-7.47,11.16-13.69C381.41,164.9,378.45,157.35,378.49,149.56Z" transform="translate(0 -35.77)"/><path class="cls-7" d="M600.38,245.31h0l.27.29,0,.26a.27.27,0,0,1,.06-.16l.08.08a.18.18,0,0,1,0-.13,6.42,6.42,0,0,1,.9-.65l.09.62c0-.41,1.65-1,1.63-1.54a45.69,45.69,0,0,0-2.88-13.57,87.63,87.63,0,0,0-2.34-9.66,93,93,0,0,0-4-9.11c-.06-.3-.14-.6-.22-.9.13-.13.22-.25.2-.3-.24-.58-.38-1.19-.57-1.79l-.09.1c-.06-.18-.13-.38-.18-.58s.17-.19.16-.21,0-.34-.13-.48l0,0a5.9,5.9,0,0,0-1.06.94l0,0,.06-.14c.06-.06.11-.12.1-.13l0-.05c.29-.62.57-1.23.85-1.85a40.48,40.48,0,0,0,2.06-5.5c.46-1.67.9-3.36,1.33-5a21.11,21.11,0,0,0,.87-5.78h0a3.12,3.12,0,0,0,.66.26l.42.14c0,.14,0,.23.11.25a17,17,0,0,0,1.86.36,6.66,6.66,0,0,0,1.59.89,1.1,1.1,0,0,0,.09-.14,15.25,15.25,0,0,0,1.44-3.25,56.08,56.08,0,0,0,2.56-7,22,22,0,0,0,.58-3.88,24.37,24.37,0,0,1,.63-3.37c.33-1.76-.07-3.62.19-5.39-2.37-3.94-3.48-9.48-3.56-13.83a5.78,5.78,0,0,0-.33-1.88c.08-1.27.14-2.54.12-3.8A6,6,0,0,0,604,148v-.25a35.47,35.47,0,0,0,1.57-9.45c0-.17.07-.35.11-.52a20,20,0,0,0,.48-5c0-.92-.11-1.85-.22-2.78a24,24,0,0,0-.59-5.89A51.23,51.23,0,0,0,601,112.23a33.42,33.42,0,0,1-2.72-4.86,5.58,5.58,0,0,1-.75-.71c-.26-.35-.53-.7-.81-1l-.32-.47a46.64,46.64,0,0,1-2.9-5.34,87.79,87.79,0,0,0-8.86-13.29A93.2,93.2,0,0,0,572.2,73.59a174,174,0,0,0-14.69-11.77c-4-2.83-7.79-6-12-8.51,0-.29,0-.5-.09-.54a55.54,55.54,0,0,1-7.69-4.39,47.41,47.41,0,0,0-8.85-3.93,131.11,131.11,0,0,0-19.75-5.33c-12.52-2.37-25.92-4.63-38.59-1.93a84.1,84.1,0,0,0-13.69,3.2,160.42,160.42,0,0,0-27.58,11.14,42.69,42.69,0,0,0-11.66,6.58,86.87,86.87,0,0,0-13.89,10.45c-7.15,6.73-13.09,14.83-16.24,23.94-1,2-1.37,4.22-2.41,6.21a79.56,79.56,0,0,1-5.23,8c-2.85,4.12-6.56,8.34-7.52,13.31a2.92,2.92,0,0,0-.23,1.62c-1.46,3.69-1.46,8-1.35,11.87.08,3,.34,6.07.49,9.11a42.24,42.24,0,0,0-.6,5.94,44.4,44.4,0,0,0,.24,7.29c.19,1.51.39,3.27,1.41,4.51l.16.15c-.19,1.83-.46,3.65-.83,5.47a26.71,26.71,0,0,1-2,6.26,46.11,46.11,0,0,1-5,6l.06.55c0,.19.05.38.08.56.28.26.63.56,1,.86l-.66.42a11.37,11.37,0,0,0,.62,2c.62,1.41,1.48,2.69,2.12,4.09.19.43.41.84.63,1.25,1.9-.08,3.51-1.52,4.74-3.06a33,33,0,0,0,2.93-3.27l.36-.44a29.92,29.92,0,0,0-2,6.39,2.56,2.56,0,0,1-.07.87.85.85,0,0,1,0,.45h0l0,0a29,29,0,0,0,0,4.06,16.84,16.84,0,0,0,1.05,5,34,34,0,0,0,1.45,3.13c-.65-.26-1.5-.44-1.52-.63l0,.2-.53-.2c.34,1.87.44,3.77.81,5.64a86.29,86.29,0,0,1-.85,14.09,1.83,1.83,0,0,1-.55-.23,130.52,130.52,0,0,1-5.8,25.62c-.08.23,1.46.92,1.93,1.06a36.8,36.8,0,0,1-1.59,5.21,19.75,19.75,0,0,1-1.85,2.16c.09-.09.44,0,.87.05-.14.28-.28.56-.43.84a5.22,5.22,0,0,0,2.27,1.19c.32-.43.61-.88.89-1.34a31.43,31.43,0,0,1-1.59,5.48c-.05.14.7.55,1.31.81-.43.85-.85,1.71-1.19,2.59,0,0,2.44.52,2.69.14a32.54,32.54,0,0,0,2.48-4.48c.24,0,.53.09.84.12-.07.17-.13.34-.19.51-1.1,2.84-3.36,5.46-4.08,8.39-.4.66-.79,1.33-1.2,2,.09-.15,2.31.56,2.65.13a47,47,0,0,0,4.34-6.81,38.53,38.53,0,0,1-2.72,5.16c-.87,1.35-2.22,2.64-3,4.1a11,11,0,0,0-1.42,1.92h0s0,0-.06.1a8.67,8.67,0,0,0-.38.82l.29,0c0,.7,0,1.54.15,1.55l.7,0c-.48.31-1,.61-1.48.89a7.53,7.53,0,0,0,.91.61c.2.1.79.51,1,.41l.8-.38s0,0,0,.07c-.58.56-1.19,1.12-1.73,1.74a7.67,7.67,0,0,0,1.29.84c-.37.37-.73.73-1.08,1.11,0,0,1.81,1.34,2.09,1.1.66-.55,1.29-1.13,1.91-1.72a4.65,4.65,0,0,0,.52-.34,18.1,18.1,0,0,1-2,2.91,5.58,5.58,0,0,0,.91.63,9.26,9.26,0,0,1-.84.64c.1-.07,1.56,1.22,2,1.08-.34.29-.69.58-1.05.85.08-.06,1.76,1.37,2.19,1.16.24-.12.46-.24.68-.37l.39.08c.4.32,1.75,1.13,2,1l.45.27a3.81,3.81,0,0,0-.24.32s0,.06.13.13a9.82,9.82,0,0,0-.91.78H378c-.85,0-.59.13-.12.21l-.33.35s1.94,1.39,2.21,1.16.57-.48.87-.71a1.36,1.36,0,0,0,.39.15l-.24.19c.05,0,.73.52,1.31.85-.51.28-1,.55-1.57.81.28-.13,1.88.47,2.53.2a30.81,30.81,0,0,0,4.66-2.46h0l.37.22a26.66,26.66,0,0,1-2.35,1.86c.1-.07,1.6,1.28,2,1a14.13,14.13,0,0,0,1.58-1.07,3.16,3.16,0,0,0,.33.21l-.49,0c-.17,0,.58.47.64.5a3.44,3.44,0,0,0,1.29.59,9,9,0,0,0,1.94-.16l.11.08c-.54.18-1.1.34-1.68.49l.82.56c.27.14.82.54,1.15.5a14.49,14.49,0,0,0,5.67-2.08l.15,0c0,.46.11.83.11.84l.21-.06c0,.13,0,.24.05.34l-.82.28c-.42.14,0,2.36,0,2.38,1-.31,2-.65,3-1,0,.4.08.71.14.71a6.6,6.6,0,0,0,1.26-.18c-.5.29.18,2.48,0,2.57l1-.5c.05.38.1.72.12.9V301l.25-.09c-.11.71.28,2.27.18,2.31l.49-.21c0,.27,0,.54.06.73-.43.19-.88.37-1.33.52s.08,2.65,0,2.67a23.28,23.28,0,0,0,13.14-12.12,17.69,17.69,0,0,0,2.51-3.67l.06-.1c0,.2.08.39.11.59l.28-.32a6.57,6.57,0,0,1,1-1.15c1.47-1.28-.21-4.58.53-2.93-.08-2.81-.62-.55-.73-3.35-1.48-2,.27-2.89-.78-5.12s-1.22-4.92-2.21-7.34c-.27-.66-.15-5.17-.36-5.84a8.44,8.44,0,0,1-.9-3.43c-.62-1.24-1.29-2.07-.48-3-.06-.19-1.2-2.06-1.26-2.24-.7-2.14-4.72-8.25-5.11-11.86-.15-1.38-2.55-4.7-2.67-6.08-.51-2.44-.52-3.71-1-6.13-.48-2.25-12.81-3.9-13.2-6.16-.22.08-2.58-5.45-2.81-5.38-3.09.95-2.31-8.35-5.07-9.88-3.06-1.7-6.16-16.92-7.37-20-1-2.53,1.07-5.87,1.85-8.44,1-3.19,3.81,0,6.53-2,1.3-1,11.78.11,13.24-.54.7-.3,5.52.28,5.87-.34.46-1.36,1.76-3.72,2-5.13-.14,1,.8-3.86.66-2.85l2.38-6.35c.16-1.11,4.19-5.8,6.16-11a44.89,44.89,0,0,0,2.2-7.34c.44-2.31.05-12.76.79-15,1.62-5,5.93-7.65,9.85-11.35,8-7.58,9.33-14.5,19.73-19.26,1.29-.59,4.58-3.78,5.88-4.3,1.63-1.08,7-1.07,8.69-1.9,6-2.89,8.36-1,15.05-1.57a44.59,44.59,0,0,1,9.57.7A25.56,25.56,0,0,1,493.3,96c5.58,2,12.34,1.88,16.83,5.32,2,.75,5.38,2.2,7.34,3,3.37,1.2,5.38,3.12,8.46,4.86s13.19,7.26,16,9.6c4,3.37,4.28,6,5.85,10.8,1,3.11,4.2,5.61,4.53,8.88.44,2.12,3.54,4.36,4.34,6.4,3.15,6.39,1.74,9.19,3.65,16.09a85.54,85.54,0,0,1,3.18,22.33c0,6.52,10.88,3.92,13.26,3.31.35.41,5.18-3.61,5.49-3.14,1.63,2.38,8.36-1.6,7.34,1.1-.15.39,3.89,4.28,3.74,4.67,2.38,2.72-.63,5-.52,8.65a24,24,0,0,1-2.84,8.77c-1.61,3-1.75,7.14-4.1,11.13-1.83,3.08-2.82,6.34-5,9.63-1.23,1.89-4.92,1.54-6.21,3.42-1.14,1.68-6.29,1.41-7.38,3.1-.77,1.21-.27.7-.93,1.92-2.4,4.46-.28,1.22-1.5,5.12-.66,2.13-1.32,3.69-2.34,7.11-.33,1.12-1,2.34-1.36,3.58-.65,2.41-.08,1-.41,3-.36,2.15-1.08,7.25-1.18,7.51-1.36,3.75.43,3.62-.88,7.39.5.62-.36,2.27,0,3,0,.09-.33,1.16-.29,1.25.36.69.17.22.24,1.15.08-.07-.19,1-.11.91,0,.85-.78,1.41,0,1.41s.64-.75,1.12-.38a3.5,3.5,0,0,1,.69.64c0-.89-.06-1.77-.07-2.66v0c.75,1.64,1.57,3.26,2.47,4.84a15.31,15.31,0,0,0,2.56,3.75,16.17,16.17,0,0,0,3.38,3.55,10.77,10.77,0,0,0,2,2.1,14.07,14.07,0,0,0,1.87,1.64c.56.41,2.27.15,2.51.34-.22-.17-.44-.35-.65-.54l.46.06,1.64,1.82,2.16,0c-.68-.72-1.35-1.46-2-2.2-.11-.13-.23-.25-.35-.38.37.07.78.1,1,.13s1.12.1,1,0c-.59-.63-1.17-1.27-1.73-1.93h.1l1.47,1.74s.79-.66,1.3-1.13c.27.21.55.42.84.62a8.36,8.36,0,0,0,1.12-.95,13.4,13.4,0,0,0,1-1c.84.89,1.69,1.78,2.5,2.69,0,0,.52-.44,1-.85a3.9,3.9,0,0,0,.35.19c.08,0,.37-.21.71-.54l.19.1a5.14,5.14,0,0,0,1.14-1A26,26,0,0,0,592,290c.26.12,1.52-1.64,1.65-1.57-.84-.44-1.65-.93-2.44-1.45a7.06,7.06,0,0,0,1.36-1.38l.62-.59c-.13-.06-.24-.14-.36-.21.46-.47,1.06-1.16,1.1-1.14-.13-.08-.24-.16-.36-.25a5.89,5.89,0,0,0,1.22-1.26l.24-.23c.47.24.95.47,1.43.67.29.12,1.55-1.69,1.7-1.61l-.35-.19c.42-.39,1-1,1.33-1.35a12.53,12.53,0,0,0,3.19.78c.53.06,1.34-1.72,1.74-1.65l-.64-.12a6.29,6.29,0,0,1,.64-.67,51.53,51.53,0,0,0-5.63-3.39L596.48,272l.24-.26a2.8,2.8,0,0,0,.75-.07.47.47,0,0,0,.18-.1l.19.1c.06,0,.2-.08.38-.24l.12,0c.32.07.87-.78,1.3-1.3l.68.22c.4.1,1.49-1.73,1.73-1.64a22.34,22.34,0,0,1-2.48-1.13,5.81,5.81,0,0,0,.63-.58,11,11,0,0,0,2.58,1.53c.18.07,1.87-1.74,1.85-1.76-.43-.5-.89-1-1.37-1.46a16.9,16.9,0,0,1,1.28-1.34l-.27-.16a1.64,1.64,0,0,0,.27-.3l-.67-.64.11,0c.39.07,1.49-1.7,1.7-1.61a11.94,11.94,0,0,1-2.29-1.33l.37-.39.57.62.15-.14c.44-.37,1.66-1.33,1.62-1.53a.32.32,0,0,0-.22-.28c-1.06-1.34-2.23-2.67-3.39-4,0,0,0-.09,0-.14,1.09,1.34,2.23,2.61,3.4,3.81,0,0,1.87-1.54,1.77-1.67-2.45-3.49-5.16-6.77-7.45-10.35C600.3,245.63,600.37,245.35,600.38,245.31Z" transform="translate(0 -35.77)"/><path class="cls-8" d="M557.47,267.72a35.66,35.66,0,0,0,12,15.67c1.24,1,7.59,6,8.83,4.25" transform="translate(0 -35.77)"/><path class="cls-7" d="M607.74,168.47C601.91,95.57,553.18,38,491.91,35.83,425.65,33.52,368.75,96.9,364.52,178l.09.76c0,.27.07.53.12.79,0,.1.14.48.16.53.1.38.19.75.28,1.12l42,1.47C411,130,447.2,89.34,489,91c41.59,1.61,73.93,44.65,73.94,97.17l40.44,1.41.34-.93a56.08,56.08,0,0,0,2.56-7,22,22,0,0,0,.58-3.88,24.37,24.37,0,0,1,.63-3.37C607.8,172.45,607.28,170.38,607.74,168.47Z" transform="translate(0 -35.77)"/><path class="cls-7" d="M377.88,195.76c-.27-6-1.27-12.14-2-18.15a3.44,3.44,0,0,0-3.24-3.28,22.1,22.1,0,0,1,.61-6c1.26-5.09-3.76-22.15-7.83-2.16a50.93,50.93,0,0,0,.6,22.28c1.42,5.82,4.58,10.82,5.72,18.77.74,2.38,2.48,1.95,3.29,4.38,1.05,3.12,6.14,2.79,6-.81C380.8,205.47,378.13,201.13,377.88,195.76Z" transform="translate(0 -35.77)"/><polygon class="cls-9" points="562.87 166.04 562.87 144.04 578.37 144.04 578.37 165.79 562.87 166.04"/><polygon class="cls-10" points="391.87 161.84 391.87 139.59 407.37 140.34 406.87 159.34 391.87 161.84"/><path class="cls-7" d="M600,158.52c-1.17,5.61-1,11.19-1,16.82a2.85,2.85,0,0,0-3,3,80.63,80.63,0,0,1-1.24,13.51c-.32,2-.49,4.66-.91,7.21-.87,2.37-1.57,4.78-2.55,7.12-1.23,2.95,3.44,5.58,5.41,3.15.18-.22.57,4.06.73,3.84l1.25,3.75s.24,2.46.25,2.44c1.19,4.72.13-4.74.59-11.87.9-7.18,5.21-15.14,5.91-21,1-8.75,4.42-19.31.66-26.29C604.22,156.65,600.83,154.47,600,158.52Z" transform="translate(0 -35.77)"/><path class="cls-11" d="M592.56,197.42s-29.51-1.71-29.51-1c0,45.41-31.89,62.13-31.89,62.13,14.45-39.71-96.3-40.85-93-2.93,0,0-31.25-29.21-31.25-63.5,0-1.47-26.82-.77-26.82-.77a106.75,106.75,0,0,0,109.71,103.7C547.47,293.43,592.42,255.11,592.56,197.42Zm-105.92,59c-20.76,0-32.85-3.46-32.85-8.65s12.09-10.15,32.85-10.15,32.86,4.21,32.86,9.4S507.41,256.42,486.64,256.42Z" transform="translate(0 -35.77)"/><path class="cls-12" d="M646.44,197.11" transform="translate(0 -35.77)"/><ellipse class="cls-5" cx="383.01" cy="152.83" rx="9.93" ry="18.62"/><ellipse class="cls-5" cx="587.55" cy="154.32" rx="9.93" ry="18.62"/><rect class="cls-13" x="286.64" y="350.32" width="398.16" height="233.5" rx="26.84"/><circle class="cls-14" cx="485.72" cy="463.08" r="13.47"/><rect class="cls-4" x="41.16" y="612.76" width="889.11" height="13.47"/><rect class="cls-3" x="41.16" y="612.76" width="889.11" height="4.49"/><path class="cls-3" d="M879.39,531.78V601a14.6,14.6,0,0,1-14.6,14.6h7.49A14.6,14.6,0,0,0,886.87,601V531.78Z" transform="translate(0 -35.77)"/><path class="cls-15" d="M832.78,476c-1.26.22-2.68.56-3.3,1.68-1,1.78.8,3.78,2.42,5,3,2.26,6.16,4.48,8.2,7.63s2.68,7.55.45,10.57c-2.91,3.95-9.85,4.8-10.52,9.66-.44,3.11,2.26,5.77,5,7.34,6.74,3.86,15.43,4.89,20.32,10.93,2-4.15,6.53-6.55,11-7.58s9.18-1,13.75-1.64c1.47-.23,3.13-.68,3.79-2,1.28-2.59-2.36-5.7-1.1-8.3.95-2,3.76-1.83,5.81-2.62,3.34-1.29,4.71-5.59,3.77-9s-3.63-6.15-6.44-8.36c-7.59-6-16.71-9.46-25.93-12-4.29-1.17-9.33-3-13.78-3.19C842,473.91,837,475.25,832.78,476Z" transform="translate(0 -35.77)"/></svg>