<svg id="Layer_1" data-name="Layer 1" xmlns="http://www.w3.org/2000/svg" viewBox="0 0 3583.33 2309"><path d="M-51.71,252.69,235.89-63.67s98.87-95.27,213.91,0,0,212.11,0,212.11L-102,741.62s-143.8,149.19,0,289.4,326.53-120.3,326.53-120.3L944.93-33.11s281.44-400.78,464.78-255.19-120.47,469.09-120.47,469.09L567.82,1083S448,1246.72,636.74,1338.39s298.39-95.27,298.39-95.27L1795.51,26s230.58-307.17,390.56-191.09-50.82,383.67-50.82,383.67l-660,938.89-11.6,17.41c-9.8,8.7-173.41,280.36-29.53,361.79,182.6,103.36,375.3-223.27,375.3-223.27L2568.91,161S2729-108.72,2912.73,41.78c152.92,125.24,16.93,282.83,16.93,282.83L2172.29,1455.87" transform="translate(381.95 536.15)" fill="none" stroke="#000" stroke-linecap="round" stroke-linejoin="round" stroke-width="432"/></svg>